<svg width="31" height="31" viewBox="0 0 31 31" fill="none" xmlns="http://www.w3.org/2000/svg">
<path d="M15.4998 0.916626C19.4621 0.916626 19.9565 0.931209 21.5111 1.00413C23.0642 1.07704 24.1215 1.32058 25.0519 1.68225C26.0144 2.05267 26.8253 2.55433 27.6361 3.36371C28.3776 4.09272 28.9514 4.97457 29.3175 5.94788C29.6778 6.87683 29.9228 7.93558 29.9957 9.48871C30.0642 11.0433 30.0832 11.5377 30.0832 15.5C30.0832 19.4622 30.0686 19.9566 29.9957 21.5112C29.9228 23.0643 29.6778 24.1216 29.3175 25.052C28.9525 26.0259 28.3786 26.9079 27.6361 27.6362C26.9069 28.3775 26.0251 28.9513 25.0519 29.3177C24.123 29.6779 23.0642 29.9229 21.5111 29.9958C19.9565 30.0643 19.4621 30.0833 15.4998 30.0833C11.5375 30.0833 11.0432 30.0687 9.48859 29.9958C7.93546 29.9229 6.87817 29.6779 5.94775 29.3177C4.97406 28.9523 4.09206 28.3784 3.36359 27.6362C2.62189 26.9073 2.04807 26.0254 1.68213 25.052C1.32046 24.1231 1.07692 23.0643 1.004 21.5112C0.935462 19.9566 0.916504 19.4622 0.916504 15.5C0.916504 11.5377 0.931087 11.0433 1.004 9.48871C1.07692 7.93413 1.32046 6.87829 1.68213 5.94788C2.04706 4.97397 2.62101 4.09189 3.36359 3.36371C4.09227 2.62175 4.97421 2.0479 5.94775 1.68225C6.87817 1.32058 7.934 1.07704 9.48859 1.00413C11.0432 0.935584 11.5375 0.916626 15.4998 0.916626ZM15.4998 8.20829C13.566 8.20829 11.7113 8.97652 10.3439 10.344C8.9764 11.7114 8.20817 13.5661 8.20817 15.5C8.20817 17.4338 8.9764 19.2885 10.3439 20.6559C11.7113 22.0234 13.566 22.7916 15.4998 22.7916C17.4337 22.7916 19.2884 22.0234 20.6558 20.6559C22.0233 19.2885 22.7915 17.4338 22.7915 15.5C22.7915 13.5661 22.0233 11.7114 20.6558 10.344C19.2884 8.97652 17.4337 8.20829 15.4998 8.20829ZM24.979 7.84371C24.979 7.36024 24.7869 6.89658 24.4451 6.55471C24.1032 6.21285 23.6396 6.02079 23.1561 6.02079C22.6726 6.02079 22.209 6.21285 21.8671 6.55471C21.5252 6.89658 21.3332 7.36024 21.3332 7.84371C21.3332 8.32718 21.5252 8.79084 21.8671 9.13271C22.209 9.47457 22.6726 9.66663 23.1561 9.66663C23.6396 9.66663 24.1032 9.47457 24.4451 9.13271C24.7869 8.79084 24.979 8.32718 24.979 7.84371ZM15.4998 11.125C16.6602 11.125 17.773 11.5859 18.5934 12.4064C19.4139 13.2268 19.8748 14.3396 19.8748 15.5C19.8748 16.6603 19.4139 17.7731 18.5934 18.5936C17.773 19.414 16.6602 19.875 15.4998 19.875C14.3395 19.875 13.2267 19.414 12.4062 18.5936C11.5858 17.7731 11.1248 16.6603 11.1248 15.5C11.1248 14.3396 11.5858 13.2268 12.4062 12.4064C13.2267 11.5859 14.3395 11.125 15.4998 11.125Z" fill="black"/>
</svg>
